<?xml version="1.0" standalone="no"?>
<!DOCTYPE svg PUBLIC "-//W3C//DTD SVG 20010904//EN"
 "http://www.w3.org/TR/2001/REC-SVG-20010904/DTD/svg10.dtd">
<svg version="1.0" xmlns="http://www.w3.org/2000/svg" viewBox="0 0 450.000000 225.000000" preserveAspectRatio="xMidYMid meet">

<g transform="translate(0.000000,225.000000) scale(0.100000,-0.100000)">
<path d="M830 1824 c-96 -20 -201 -78 -283 -155 -161 -150 -228 -364 -182
-584 47 -224 246 -423 470 -470 277 -58 562 78 684 326 93 189 93 369 0 558
-123 250 -410 385 -689 325z"/>
<path d="M2010 1220 l0 -400 85 0 85 0 0 128 0 128 36 35 c35 34 36 34 52 14
9 -12 73 -85 140 -163 l124 -142 106 0 106 0 -26 28 c-13 15 -100 112 -192
216 l-168 189 183 183 184 184 -110 0 -110 0 -162 -162 -163 -163 0 163 0 162
-85 0 -85 0 0 -400z"/>
<path d="M2810 1220 l0 -400 85 0 85 0 0 159 0 159 118 4 c96 3 125 8 158 25
80 42 126 120 126 213 0 97 -52 182 -137 221 -35 16 -66 19 -237 19 l-198 0 0
-400z m380 220 c31 -31 27 -93 -6 -119 -23 -18 -41 -21 -115 -21 l-89 0 0 80
0 80 95 0 c82 0 98 -3 115 -20z"/>
<path d="M3450 1550 l0 -70 30 0 30 0 0 -260 0 -260 -30 0 -30 0 0 -70 0 -70
145 0 145 0 0 69 c0 69 0 70 -27 73 l-28 3 0 255 0 255 28 3 c27 3 27 4 27 73
l0 69 -145 0 -145 0 0 -70z"/>
</g>
</svg>
